<svg width="486" height="24" viewBox="0 0 486 24" fill="none" xmlns="http://www.w3.org/2000/svg">
<path d="M10.3338 21.017C8.84233 21.017 7.51657 20.8134 6.35653 20.4062C5.20123 20.0038 4.22585 19.4119 3.4304 18.6307C2.63494 17.8447 2.03125 16.8883 1.61932 15.7614C1.20739 14.6345 0.999053 13.3466 0.994318 11.8977C0.999053 10.482 1.20975 9.20597 1.62642 8.0696C2.04309 6.9285 2.65152 5.95312 3.4517 5.14347C4.25189 4.32907 5.22964 3.70407 6.38494 3.26847C7.54025 2.83286 8.85417 2.61506 10.3267 2.61506C11.714 2.61506 12.9427 2.82576 14.0128 3.24716C15.0876 3.66856 15.9943 4.25568 16.733 5.00852C17.4763 5.75663 18.0374 6.63258 18.4162 7.63636C18.7997 8.63542 18.9915 9.7197 18.9915 10.8892C18.9915 11.6989 18.9299 12.4659 18.8068 13.1903C18.6837 13.91 18.473 14.5492 18.1747 15.108C17.8812 15.6667 17.4811 16.1117 16.9744 16.4432C16.4678 16.7699 15.8333 16.9474 15.071 16.9759C14.5928 16.9995 14.1738 16.9545 13.8139 16.8409C13.4541 16.7273 13.1629 16.5497 12.9403 16.3082C12.7225 16.062 12.5852 15.7614 12.5284 15.4062H12.4432C12.3343 15.6903 12.1283 15.9508 11.8253 16.1875C11.527 16.4195 11.1577 16.6018 10.7173 16.7344C10.277 16.8622 9.78693 16.9143 9.24716 16.8906C8.66951 16.8622 8.13447 16.7296 7.64205 16.4929C7.15436 16.2514 6.72822 15.9152 6.36364 15.4844C6.00379 15.0488 5.72443 14.5232 5.52557 13.9077C5.3267 13.2921 5.22727 12.5938 5.22727 11.8125C5.22727 11.0502 5.33617 10.3778 5.55398 9.79545C5.77178 9.21307 6.06297 8.71591 6.42756 8.30398C6.79688 7.89205 7.21354 7.57008 7.67756 7.33807C8.14157 7.10133 8.61979 6.94981 9.11222 6.88352C9.62358 6.8125 10.1042 6.8196 10.554 6.90483C11.0038 6.99006 11.3778 7.12026 11.6761 7.29545C11.9792 7.47064 12.1686 7.66241 12.2443 7.87074H12.3438V7.07528H14.3253V13.8366C14.33 14.1918 14.4152 14.4782 14.581 14.696C14.7514 14.9138 14.9882 15.0227 15.2912 15.0227C15.67 15.0227 15.9754 14.8736 16.2074 14.5753C16.4441 14.2723 16.6146 13.8082 16.7188 13.1832C16.8277 12.5535 16.8797 11.7486 16.875 10.7685C16.8797 9.96354 16.7732 9.23437 16.5554 8.58097C16.3423 7.92282 16.0393 7.34517 15.6463 6.84801C15.2533 6.35085 14.7822 5.93655 14.233 5.60511C13.6884 5.26894 13.0824 5.01562 12.4148 4.84517C11.7472 4.67472 11.0346 4.58949 10.277 4.58949C9.11695 4.58949 8.09659 4.76705 7.21591 5.12216C6.33523 5.47254 5.59659 5.97206 5 6.62074C4.40814 7.26941 3.9607 8.03883 3.65767 8.92898C3.35938 9.81439 3.21023 10.7945 3.21023 11.8693C3.21023 13.0199 3.36648 14.0402 3.67898 14.9304C3.99621 15.8158 4.46023 16.5616 5.07102 17.1676C5.68182 17.7737 6.43703 18.233 7.33665 18.5455C8.241 18.858 9.2803 19.0142 10.4545 19.0142C10.9943 19.0142 11.5223 18.9716 12.0384 18.8864C12.5545 18.8011 13.0185 18.7017 13.4304 18.5881C13.8423 18.4744 14.1596 18.375 14.3821 18.2898L14.9858 20.0938C14.6922 20.2453 14.2945 20.392 13.7926 20.5341C13.2955 20.6761 12.7462 20.7921 12.1449 20.8821C11.5483 20.9721 10.9446 21.017 10.3338 21.017ZM9.83665 14.8523C10.438 14.8523 10.9186 14.7363 11.2784 14.5043C11.6383 14.2675 11.8963 13.9171 12.0526 13.4531C12.2088 12.9891 12.2846 12.4115 12.2798 11.7202C12.2798 11.0762 12.1993 10.5483 12.0384 10.1364C11.8774 9.72443 11.6193 9.41903 11.2642 9.22017C10.9091 9.02131 10.438 8.92188 9.85085 8.92188C9.32055 8.92188 8.86837 9.04261 8.49432 9.28409C8.125 9.52557 7.84091 9.85937 7.64205 10.2855C7.44792 10.7069 7.35085 11.1875 7.35085 11.7273C7.35085 12.267 7.42898 12.776 7.58523 13.2543C7.74621 13.7277 8.00663 14.1136 8.36648 14.4119C8.73106 14.7055 9.22112 14.8523 9.83665 14.8523ZM21.4151 4.45455H24.6396L28.9577 14.9943H29.1282L33.4464 4.45455H36.6708V19H34.1424V9.0071H34.0075L29.9876 18.9574H28.0984L24.0785 8.9858H23.9435V19H21.4151V4.45455ZM52.5373 11.7273C52.5373 13.2945 52.2437 14.6368 51.6566 15.7543C51.0742 16.867 50.2788 17.7192 49.2702 18.3111C48.2665 18.9029 47.1277 19.1989 45.854 19.1989C44.5804 19.1989 43.4393 18.9029 42.4308 18.3111C41.427 17.7145 40.6315 16.8598 40.0444 15.7472C39.462 14.6297 39.1708 13.2898 39.1708 11.7273C39.1708 10.16 39.462 8.82008 40.0444 7.70739C40.6315 6.58996 41.427 5.73532 42.4308 5.14347C43.4393 4.55161 44.5804 4.25568 45.854 4.25568C47.1277 4.25568 48.2665 4.55161 49.2702 5.14347C50.2788 5.73532 51.0742 6.58996 51.6566 7.70739C52.2437 8.82008 52.5373 10.16 52.5373 11.7273ZM49.8881 11.7273C49.8881 10.6241 49.7153 9.69366 49.3697 8.93608C49.0288 8.17377 48.5553 7.59848 47.9492 7.21023C47.3432 6.81723 46.6448 6.62074 45.854 6.62074C45.0633 6.62074 44.3649 6.81723 43.7589 7.21023C43.1528 7.59848 42.677 8.17377 42.3313 8.93608C41.9904 9.69366 41.82 10.6241 41.82 11.7273C41.82 12.8305 41.9904 13.7633 42.3313 14.5256C42.677 15.2831 43.1528 15.8584 43.7589 16.2514C44.3649 16.6397 45.0633 16.8338 45.854 16.8338C46.6448 16.8338 47.3432 16.6397 47.9492 16.2514C48.5553 15.8584 49.0288 15.2831 49.3697 14.5256C49.7153 13.7633 49.8881 12.8305 49.8881 11.7273ZM59.9574 19H55.0284V4.45455H60.0568C61.5009 4.45455 62.7415 4.74574 63.7784 5.32812C64.8201 5.90578 65.6203 6.73674 66.179 7.82102C66.7377 8.9053 67.017 10.2027 67.017 11.7131C67.017 13.2282 66.7353 14.5303 66.1719 15.6193C65.6132 16.7083 64.8059 17.544 63.75 18.1264C62.6989 18.7088 61.4347 19 59.9574 19ZM57.6634 16.7202H59.8295C60.8428 16.7202 61.688 16.5355 62.3651 16.1662C63.0421 15.7921 63.5511 15.2358 63.892 14.4972C64.233 13.7538 64.4034 12.8258 64.4034 11.7131C64.4034 10.6004 64.233 9.67708 63.892 8.94318C63.5511 8.20455 63.0469 7.65294 62.3793 7.28835C61.7164 6.91903 60.8925 6.73438 59.9077 6.73438H57.6634V16.7202ZM78.6896 4.45455H81.3246V13.9574C81.3246 14.9991 81.0784 15.9152 80.5859 16.706C80.0982 17.4967 79.4117 18.1146 78.5263 18.5597C77.6409 19 76.6063 19.2202 75.4226 19.2202C74.2341 19.2202 73.1972 19 72.3118 18.5597C71.4264 18.1146 70.7398 17.4967 70.2521 16.706C69.7644 15.9152 69.5206 14.9991 69.5206 13.9574V4.45455H72.1555V13.7372C72.1555 14.3433 72.2881 14.883 72.5533 15.3565C72.8232 15.83 73.2019 16.2017 73.6896 16.4716C74.1773 16.7367 74.755 16.8693 75.4226 16.8693C76.0902 16.8693 76.6679 16.7367 77.1555 16.4716C77.648 16.2017 78.0268 15.83 78.2919 15.3565C78.5571 14.883 78.6896 14.3433 78.6896 13.7372V4.45455ZM84.1886 19V4.45455H86.8235V16.7912H93.2298V19H84.1886ZM95.5167 19V4.45455H104.977V6.66335H98.1516V10.6122H104.487V12.821H98.1516V16.7912H105.034V19H95.5167ZM113.489 3.77273L108.801 21.1875H106.55L111.238 3.77273H113.489Z" fill="#FF0000"/>
<path d="M139.435 19V4.45455H144.889C146.007 4.45455 146.944 4.66288 147.702 5.07955C148.464 5.49621 149.039 6.06913 149.428 6.7983C149.821 7.52273 150.017 8.34659 150.017 9.26989C150.017 10.2027 149.821 11.0312 149.428 11.7557C149.035 12.4801 148.455 13.0507 147.688 13.4673C146.92 13.8793 145.976 14.0852 144.854 14.0852H141.239V11.919H144.499C145.152 11.919 145.687 11.8054 146.104 11.5781C146.52 11.3509 146.828 11.0384 147.027 10.6406C147.231 10.2429 147.332 9.78598 147.332 9.26989C147.332 8.75379 147.231 8.29924 147.027 7.90625C146.828 7.51326 146.518 7.20786 146.097 6.99006C145.68 6.76752 145.143 6.65625 144.484 6.65625H142.07V19H139.435ZM152.306 19V4.45455H157.76C158.878 4.45455 159.815 4.64867 160.573 5.03693C161.335 5.42519 161.91 5.9697 162.299 6.67045C162.692 7.36648 162.888 8.1785 162.888 9.10653C162.888 10.0393 162.689 10.849 162.292 11.5355C161.899 12.2173 161.319 12.7453 160.551 13.1193C159.784 13.4886 158.842 13.6733 157.725 13.6733H153.84V11.4858H157.37C158.023 11.4858 158.558 11.3958 158.975 11.2159C159.391 11.0312 159.699 10.7637 159.898 10.4134C160.102 10.0582 160.203 9.62263 160.203 9.10653C160.203 8.59044 160.102 8.15009 159.898 7.78551C159.694 7.41619 159.384 7.13684 158.968 6.94744C158.551 6.75331 158.014 6.65625 157.355 6.65625H154.941V19H152.306ZM159.82 12.4091L163.421 19H160.48L156.944 12.4091H159.82ZM178.311 11.7273C178.311 13.2945 178.017 14.6368 177.43 15.7543C176.848 16.867 176.052 17.7192 175.044 18.3111C174.04 18.9029 172.901 19.1989 171.627 19.1989C170.354 19.1989 169.213 18.9029 168.204 18.3111C167.2 17.7145 166.405 16.8598 165.818 15.7472C165.235 14.6297 164.944 13.2898 164.944 11.7273C164.944 10.16 165.235 8.82008 165.818 7.70739C166.405 6.58996 167.2 5.73532 168.204 5.14347C169.213 4.55161 170.354 4.25568 171.627 4.25568C172.901 4.25568 174.04 4.55161 175.044 5.14347C176.052 5.73532 176.848 6.58996 177.43 7.70739C178.017 8.82008 178.311 10.16 178.311 11.7273ZM175.662 11.7273C175.662 10.6241 175.489 9.69366 175.143 8.93608C174.802 8.17377 174.329 7.59848 173.723 7.21023C173.117 6.81723 172.418 6.62074 171.627 6.62074C170.837 6.62074 170.138 6.81723 169.532 7.21023C168.926 7.59848 168.45 8.17377 168.105 8.93608C167.764 9.69366 167.593 10.6241 167.593 11.7273C167.593 12.8305 167.764 13.7633 168.105 14.5256C168.45 15.2831 168.926 15.8584 169.532 16.2514C170.138 16.6397 170.837 16.8338 171.627 16.8338C172.418 16.8338 173.117 16.6397 173.723 16.2514C174.329 15.8584 174.802 15.2831 175.143 14.5256C175.489 13.7633 175.662 12.8305 175.662 11.7273ZM186.54 4.45455H189.154V14.6818C189.149 15.6193 188.951 16.4266 188.558 17.1037C188.165 17.776 187.615 18.2945 186.91 18.6591C186.209 19.0189 185.392 19.1989 184.46 19.1989C183.607 19.1989 182.84 19.0473 182.158 18.7443C181.481 18.4366 180.944 17.982 180.546 17.3807C180.148 16.7794 179.95 16.0312 179.95 15.1364H182.57C182.575 15.5294 182.66 15.8679 182.826 16.152C182.996 16.4361 183.231 16.6539 183.529 16.8054C183.827 16.9569 184.171 17.0327 184.559 17.0327C184.98 17.0327 185.338 16.9451 185.631 16.7699C185.925 16.59 186.147 16.3248 186.299 15.9744C186.455 15.6241 186.536 15.1932 186.54 14.6818V4.45455ZM192.013 19V4.45455H201.473V6.66335H194.648V10.6122H200.983V12.821H194.648V16.7912H201.53V19H192.013ZM216.612 9.36222H213.955C213.879 8.92661 213.74 8.54072 213.536 8.20455C213.333 7.86364 213.079 7.57481 212.776 7.33807C212.473 7.10133 212.128 6.92377 211.739 6.8054C211.356 6.68229 210.942 6.62074 210.496 6.62074C209.706 6.62074 209.005 6.8196 208.394 7.21733C207.783 7.61032 207.305 8.18797 206.96 8.95028C206.614 9.70786 206.441 10.6335 206.441 11.7273C206.441 12.84 206.614 13.7775 206.96 14.5398C207.31 15.2973 207.788 15.8703 208.394 16.2585C209.005 16.642 209.703 16.8338 210.489 16.8338C210.925 16.8338 211.332 16.777 211.711 16.6634C212.094 16.545 212.438 16.3722 212.741 16.1449C213.049 15.9176 213.307 15.6383 213.515 15.3068C213.728 14.9754 213.875 14.5966 213.955 14.1705L216.612 14.1847C216.512 14.8759 216.297 15.5246 215.965 16.1307C215.638 16.7367 215.21 17.2718 214.68 17.7358C214.149 18.1951 213.529 18.5549 212.819 18.8153C212.109 19.071 211.32 19.1989 210.454 19.1989C209.175 19.1989 208.034 18.9029 207.031 18.3111C206.027 17.7192 205.236 16.8646 204.658 15.7472C204.081 14.6297 203.792 13.2898 203.792 11.7273C203.792 10.16 204.083 8.82008 204.665 7.70739C205.248 6.58996 206.041 5.73532 207.045 5.14347C208.049 4.55161 209.185 4.25568 210.454 4.25568C211.263 4.25568 212.016 4.36932 212.712 4.59659C213.408 4.82386 214.029 5.15767 214.573 5.59801C215.118 6.03362 215.565 6.56866 215.915 7.20312C216.271 7.83286 216.503 8.55256 216.612 9.36222ZM218.385 6.66335V4.45455H229.99V6.66335H225.495V19H222.881V6.66335H218.385ZM237.828 10.669V12.7855H231.279V10.669H237.828ZM252.599 4.45455V19H250.255L243.401 9.09233H243.281V19H240.646V4.45455H243.004L249.85 14.3693H249.978V4.45455H252.599ZM257.338 19H254.525L259.646 4.45455H262.899L268.027 19H265.214L261.329 7.4375H261.216L257.338 19ZM257.43 13.2969H265.1V15.4134H257.43V13.2969ZM269.942 4.45455H273.167L277.485 14.9943H277.656L281.974 4.45455H285.198V19H282.67V9.0071H282.535L278.515 18.9574H276.626L272.606 8.9858H272.471V19H269.942V4.45455ZM288.067 19V4.45455H297.528V6.66335H290.702V10.6122H297.038V12.821H290.702V16.7912H297.585V19H288.067ZM306.714 10.669V12.7855H300.166V10.669H306.714Z" fill="#FF0000"/>
<path d="M334.435 19V4.45455H339.889C341.007 4.45455 341.944 4.66288 342.702 5.07955C343.464 5.49621 344.039 6.06913 344.428 6.7983C344.821 7.52273 345.017 8.34659 345.017 9.26989C345.017 10.2027 344.821 11.0312 344.428 11.7557C344.035 12.4801 343.455 13.0507 342.688 13.4673C341.92 13.8793 340.976 14.0852 339.854 14.0852H336.239V11.919H339.499C340.152 11.919 340.687 11.8054 341.104 11.5781C341.52 11.3509 341.828 11.0384 342.027 10.6406C342.231 10.2429 342.332 9.78598 342.332 9.26989C342.332 8.75379 342.231 8.29924 342.027 7.90625C341.828 7.51326 341.518 7.20786 341.097 6.99006C340.68 6.76752 340.143 6.65625 339.484 6.65625H337.07V19H334.435ZM347.306 19V4.45455H352.76C353.878 4.45455 354.815 4.64867 355.573 5.03693C356.335 5.42519 356.91 5.9697 357.299 6.67045C357.692 7.36648 357.888 8.1785 357.888 9.10653C357.888 10.0393 357.689 10.849 357.292 11.5355C356.899 12.2173 356.319 12.7453 355.551 13.1193C354.784 13.4886 353.842 13.6733 352.725 13.6733H348.84V11.4858H352.37C353.023 11.4858 353.558 11.3958 353.975 11.2159C354.391 11.0312 354.699 10.7637 354.898 10.4134C355.102 10.0582 355.203 9.62263 355.203 9.10653C355.203 8.59044 355.102 8.15009 354.898 7.78551C354.694 7.41619 354.384 7.13684 353.968 6.94744C353.551 6.75331 353.014 6.65625 352.355 6.65625H349.941V19H347.306ZM354.82 12.4091L358.421 19H355.48L351.944 12.4091H354.82ZM373.311 11.7273C373.311 13.2945 373.017 14.6368 372.43 15.7543C371.848 16.867 371.052 17.7192 370.044 18.3111C369.04 18.9029 367.901 19.1989 366.627 19.1989C365.354 19.1989 364.213 18.9029 363.204 18.3111C362.2 17.7145 361.405 16.8598 360.818 15.7472C360.235 14.6297 359.944 13.2898 359.944 11.7273C359.944 10.16 360.235 8.82008 360.818 7.70739C361.405 6.58996 362.2 5.73532 363.204 5.14347C364.213 4.55161 365.354 4.25568 366.627 4.25568C367.901 4.25568 369.04 4.55161 370.044 5.14347C371.052 5.73532 371.848 6.58996 372.43 7.70739C373.017 8.82008 373.311 10.16 373.311 11.7273ZM370.662 11.7273C370.662 10.6241 370.489 9.69366 370.143 8.93608C369.802 8.17377 369.329 7.59848 368.723 7.21023C368.117 6.81723 367.418 6.62074 366.627 6.62074C365.837 6.62074 365.138 6.81723 364.532 7.21023C363.926 7.59848 363.45 8.17377 363.105 8.93608C362.764 9.69366 362.593 10.6241 362.593 11.7273C362.593 12.8305 362.764 13.7633 363.105 14.5256C363.45 15.2831 363.926 15.8584 364.532 16.2514C365.138 16.6397 365.837 16.8338 366.627 16.8338C367.418 16.8338 368.117 16.6397 368.723 16.2514C369.329 15.8584 369.802 15.2831 370.143 14.5256C370.489 13.7633 370.662 12.8305 370.662 11.7273ZM381.54 4.45455H384.154V14.6818C384.149 15.6193 383.951 16.4266 383.558 17.1037C383.165 17.776 382.615 18.2945 381.91 18.6591C381.209 19.0189 380.392 19.1989 379.46 19.1989C378.607 19.1989 377.84 19.0473 377.158 18.7443C376.481 18.4366 375.944 17.982 375.546 17.3807C375.148 16.7794 374.95 16.0312 374.95 15.1364H377.57C377.575 15.5294 377.66 15.8679 377.826 16.152C377.996 16.4361 378.231 16.6539 378.529 16.8054C378.827 16.9569 379.171 17.0327 379.559 17.0327C379.98 17.0327 380.338 16.9451 380.631 16.7699C380.925 16.59 381.147 16.3248 381.299 15.9744C381.455 15.6241 381.536 15.1932 381.54 14.6818V4.45455ZM387.013 19V4.45455H396.473V6.66335H389.648V10.6122H395.983V12.821H389.648V16.7912H396.53V19H387.013ZM411.612 9.36222H408.955C408.879 8.92661 408.74 8.54072 408.536 8.20455C408.333 7.86364 408.079 7.57481 407.776 7.33807C407.473 7.10133 407.128 6.92377 406.739 6.8054C406.356 6.68229 405.942 6.62074 405.496 6.62074C404.706 6.62074 404.005 6.8196 403.394 7.21733C402.783 7.61032 402.305 8.18797 401.96 8.95028C401.614 9.70786 401.441 10.6335 401.441 11.7273C401.441 12.84 401.614 13.7775 401.96 14.5398C402.31 15.2973 402.788 15.8703 403.394 16.2585C404.005 16.642 404.703 16.8338 405.489 16.8338C405.925 16.8338 406.332 16.777 406.711 16.6634C407.094 16.545 407.438 16.3722 407.741 16.1449C408.049 15.9176 408.307 15.6383 408.515 15.3068C408.728 14.9754 408.875 14.5966 408.955 14.1705L411.612 14.1847C411.512 14.8759 411.297 15.5246 410.965 16.1307C410.638 16.7367 410.21 17.2718 409.68 17.7358C409.149 18.1951 408.529 18.5549 407.819 18.8153C407.109 19.071 406.32 19.1989 405.454 19.1989C404.175 19.1989 403.034 18.9029 402.031 18.3111C401.027 17.7192 400.236 16.8646 399.658 15.7472C399.081 14.6297 398.792 13.2898 398.792 11.7273C398.792 10.16 399.083 8.82008 399.665 7.70739C400.248 6.58996 401.041 5.73532 402.045 5.14347C403.049 4.55161 404.185 4.25568 405.454 4.25568C406.263 4.25568 407.016 4.36932 407.712 4.59659C408.408 4.82386 409.029 5.15767 409.573 5.59801C410.118 6.03362 410.565 6.56866 410.915 7.20312C411.271 7.83286 411.503 8.55256 411.612 9.36222ZM413.385 6.66335V4.45455H424.99V6.66335H420.495V19H417.881V6.66335H413.385ZM432.828 10.669V12.7855H426.279V10.669H432.828ZM434.108 6.66335V4.45455H445.713V6.66335H441.217V19H438.604V6.66335H434.108ZM446.956 4.45455H449.932L453.49 10.8892H453.632L457.19 4.45455H460.166L454.875 13.5739V19H452.247V13.5739L446.956 4.45455ZM462.032 19V4.45455H467.487C468.604 4.45455 469.542 4.66288 470.299 5.07955C471.062 5.49621 471.637 6.06913 472.025 6.7983C472.418 7.52273 472.615 8.34659 472.615 9.26989C472.615 10.2027 472.418 11.0312 472.025 11.7557C471.632 12.4801 471.052 13.0507 470.285 13.4673C469.518 13.8793 468.574 14.0852 467.451 14.0852H463.836V11.919H467.096C467.75 11.919 468.285 11.8054 468.701 11.5781C469.118 11.3509 469.426 11.0384 469.625 10.6406C469.828 10.2429 469.93 9.78598 469.93 9.26989C469.93 8.75379 469.828 8.29924 469.625 7.90625C469.426 7.51326 469.116 7.20786 468.694 6.99006C468.278 6.76752 467.74 6.65625 467.082 6.65625H464.667V19H462.032ZM474.903 19V4.45455H484.364V6.66335H477.538V10.6122H483.874V12.821H477.538V16.7912H484.42V19H474.903Z" fill="#FF0000"/>
</svg>
