<svg width="406" height="48" viewBox="0 0 406 48" fill="none" xmlns="http://www.w3.org/2000/svg">
<g clip-path="url(#clip0_427_28)">
<path d="M326.965 10.8453C326.965 10.1827 327.194 9.6348 327.664 9.20158C328.134 8.76836 328.778 8.55176 329.584 8.55176C330.377 8.55176 331.021 8.76836 331.491 9.20158C331.961 9.6348 332.203 10.1827 332.203 10.8453C332.203 11.5206 331.961 12.0685 331.478 12.5017C330.994 12.9349 330.363 13.1515 329.571 13.1515C328.778 13.1515 328.147 12.9349 327.664 12.5017C327.207 12.0812 326.965 11.5206 326.965 10.8453ZM331.934 31.7543H327.247V15.1392H331.934V31.7543Z" fill="white"/>
<path d="M334.606 23.3302C334.606 20.7819 335.251 18.7304 336.526 17.176C337.802 15.6215 339.521 14.8442 341.697 14.8442C343.617 14.8442 345.108 15.4686 346.183 16.7173L346.371 15.15H350.614V31.2045C350.614 32.6571 350.265 33.9185 349.567 35.0016C348.869 36.0719 347.888 36.9001 346.626 37.4607C345.363 38.0214 343.886 38.3017 342.194 38.3017C340.905 38.3017 339.656 38.0596 338.447 37.5754C337.225 37.0912 336.312 36.4669 335.68 35.6896L337.749 32.9884C338.917 34.2243 340.327 34.8487 341.992 34.8487C343.228 34.8487 344.195 34.5301 344.893 33.9058C345.578 33.2814 345.927 32.3895 345.927 31.23V30.3381C344.853 31.4976 343.429 32.071 341.67 32.071C339.562 32.071 337.869 31.2937 336.567 29.7265C335.264 28.172 334.619 26.0951 334.619 23.5213V23.3302H334.606ZM339.28 23.6487C339.28 25.1523 339.602 26.3372 340.233 27.1909C340.864 28.0446 341.737 28.4778 342.852 28.4778C344.275 28.4778 345.296 27.9682 345.914 26.9616V19.9664C345.283 18.9471 344.275 18.4501 342.892 18.4501C341.764 18.4501 340.891 18.8834 340.246 19.7625C339.602 20.6162 339.28 21.9286 339.28 23.6487Z" fill="white"/>
<path d="M358.001 15.1373L358.149 17.0613C359.398 15.5833 361.077 14.8315 363.185 14.8315C365.038 14.8315 366.422 15.354 367.322 16.386C368.221 17.4181 368.691 18.9599 368.718 21.024V31.7525H364.045V21.1259C364.045 20.183 363.83 19.5077 363.4 19.0745C362.97 18.654 362.245 18.4374 361.251 18.4374C359.935 18.4374 358.955 18.9726 358.297 20.0301V31.7397H353.623V15.1373H358.001Z" fill="white"/>
<path d="M371.726 10.8428C371.726 10.1802 371.954 9.63236 372.424 9.19914C372.894 8.76592 373.539 8.54932 374.345 8.54932C375.137 8.54932 375.782 8.76592 376.252 9.19914C376.722 9.63236 376.964 10.1802 376.964 10.8428C376.964 11.5181 376.722 12.066 376.239 12.4992C375.755 12.9325 375.124 13.1491 374.331 13.1491C373.539 13.1491 372.908 12.9325 372.424 12.4992C371.968 12.0788 371.726 11.5181 371.726 10.8428ZM376.695 31.7519H372.008V15.1368H376.695V31.7519Z" fill="white"/>
<path d="M385.655 11.0596V15.1369H388.649V18.386H385.655V26.6809C385.655 27.2925 385.775 27.7384 386.031 28.006C386.272 28.2736 386.756 28.401 387.454 28.401C387.978 28.401 388.435 28.3628 388.824 28.2991V31.6629C387.911 31.9304 386.957 32.0578 385.99 32.0578C382.713 32.0578 381.035 30.4906 380.981 27.3434V18.3988H378.429V15.1497H380.981V11.0723H385.655V11.0596Z" fill="white"/>
<path d="M398.801 32.0583C396.236 32.0583 394.141 31.3066 392.53 29.8158C390.918 28.325 390.112 26.3373 390.112 23.84V23.4067C390.112 21.7376 390.448 20.2468 391.133 18.9344C391.818 17.622 392.771 16.6027 394.02 15.8892C395.269 15.1756 396.693 14.8188 398.278 14.8188C400.668 14.8188 402.562 15.5324 403.932 16.9722C405.302 18.3993 406 20.4379 406 23.0627V24.872H394.853C395.001 25.9551 395.457 26.8215 396.223 27.4841C396.988 28.1339 397.942 28.4652 399.11 28.4652C400.91 28.4652 402.32 27.8408 403.327 26.6049L405.624 29.0513C404.926 29.9942 403.972 30.7332 402.777 31.2556C401.595 31.7908 400.265 32.0583 398.801 32.0583ZM398.278 18.412C397.351 18.412 396.599 18.7051 396.021 19.3039C395.444 19.9028 395.081 20.7565 394.907 21.865H401.407V21.5082C401.38 20.5271 401.111 19.7626 400.561 19.2147C400.024 18.6796 399.258 18.412 398.278 18.412Z" fill="white"/>
<path opacity="0.5" d="M302.779 0.812549L290.842 43.1024C290.781 43.2943 290.538 43.3519 290.397 43.2175L282.404 35.6349L288.393 14.442C288.454 14.2501 288.272 14.0773 288.07 14.1349L265.732 19.8171L257.78 12.2728C257.639 12.1385 257.699 11.9081 257.902 11.8505L302.456 0.505406C302.658 0.467013 302.84 0.639781 302.779 0.812549Z" fill="#00B37E"/>
<path opacity="0.5" d="M282.404 35.6348L279.329 46.5768C279.268 46.7687 279.025 46.8263 278.883 46.692L254.077 23.1763C253.936 23.0419 253.996 22.8115 254.199 22.754L265.732 19.8169L282.404 35.6348Z" fill="#00B37E"/>
<path d="M288.392 14.4419L282.403 35.6348L265.731 19.8169L288.068 14.1348C288.271 14.0772 288.453 14.25 288.392 14.4419Z" fill="#00B37E"/>
</g>
<g clip-path="url(#clip1_427_28)">
<path d="M51.8804 14.0177C49.7854 14.0177 48.058 15.709 48.058 17.8414V25.9301V34.0187H51.8804V25.9301V17.8414H56.438H60.9956V14.0177H56.438H51.8804Z" fill="#E1E1E6"/>
<path d="M83.7833 23.9817V17.8049C83.7833 15.7092 82.0925 13.9811 79.9607 13.9811H73.786H67.6112C65.5161 13.9811 63.7887 15.6724 63.7887 17.8049V23.9817V30.1584C63.7887 32.2542 65.4794 33.9822 67.6112 33.9822H73.786H79.9607C82.0558 33.9822 83.7833 32.2909 83.7833 30.1584V23.9817ZM79.9607 23.9817V30.1584H73.786H67.6112V23.9817V17.8049H73.786H79.9607V23.9817Z" fill="#E1E1E6"/>
<path d="M91.4287 14.0177C89.3338 14.0177 87.6063 15.709 87.6063 17.8414V24.0182V30.195C87.6063 32.2907 89.2971 34.0187 91.4287 34.0187L104.881 33.8348V30.195H91.4287V24.0182V17.8414H104.881V14.2015L91.4287 14.0177Z" fill="#E1E1E6"/>
<path d="M126.79 14.0177H121.607L114.036 22.0696H112.529V14.0177H108.706V23.9815V33.9819H112.529V25.8933H114.44H114.734L122.6 33.9819H127.855L117.748 23.5403L126.79 14.0177Z" fill="#E1E1E6"/>
<path d="M132.484 30.1584V25.8935L148.656 25.7097V22.0697V17.8049C148.656 15.7092 146.964 13.9811 144.834 13.9811H138.658H132.484C130.389 13.9811 128.661 15.6724 128.661 17.8049V23.9817V30.1584C128.661 32.2542 130.351 33.9822 132.484 33.9822L148.656 33.7983V30.1584H132.484ZM132.484 17.8049H138.658H144.834V22.0697H140.57H132.484V17.8049Z" fill="#E1E1E6"/>
<path d="M158.249 8.172H156.778L154.425 11.0766V13.9811H151.522V17.8049L154.425 17.768V30.1584C154.425 32.2542 156.116 33.9822 158.249 33.9822L164.423 33.7983V30.1584H158.249V17.7313L164.974 17.621V13.9811H158.249V8.172Z" fill="#E1E1E6"/>
<path d="M185.116 25.8935C185.116 23.7979 183.425 22.0697 181.294 22.0697H176.479H171.663V17.8049H185.116V14.1649L171.663 13.9811C169.569 13.9811 167.842 15.6724 167.842 17.8049V22.0697C167.842 24.1655 169.531 25.8935 171.663 25.8935H176.479H181.294V30.1584H167.842V33.7983L181.294 33.9822C183.388 33.9822 185.116 32.2909 185.116 30.1584V25.8935Z" fill="#E1E1E6"/>
<path d="M205.074 14.0177H198.899H192.723C190.629 14.0177 188.901 15.709 188.901 17.8414V24.0182V30.195C188.901 32.2907 190.593 34.0187 192.723 34.0187L208.895 33.8348V30.195H192.723V25.9301L208.895 25.7462V22.1063V17.8414C208.895 15.709 207.206 14.0177 205.074 14.0177ZM205.074 22.0696H192.723V17.8046H198.899H205.074V22.0696Z" fill="#E1E1E6"/>
<path d="M228.889 14.0177L212.717 14.2015V17.8414H228.889V22.1063L212.717 22.2902V25.9301V30.195C212.717 32.2907 214.408 34.0187 216.54 34.0187H222.715H228.889C230.985 34.0187 232.713 32.3275 232.713 30.195V24.0182V17.8414C232.676 15.709 230.985 14.0177 228.889 14.0177ZM228.889 30.1583H222.715H216.54V25.8933H228.889V30.1583Z" fill="#E1E1E6"/>
<path d="M242.274 17.7313L249 17.621V13.9812H242.274V8.13525H240.804L238.451 11.0398V13.9443H235.547V17.7681L238.451 17.7313V30.1216C238.451 32.2174 240.142 33.9454 242.274 33.9454L248.449 33.7616V30.1216H242.274V17.7313Z" fill="#E1E1E6"/>
<path d="M37.9512 0.928945L31.7396 0.0097798C31.5558 -0.0269868 31.3721 0.0465419 31.2987 0.120075L28.6523 3.57613C28.4685 3.79674 28.4318 4.09087 28.5052 4.34824C28.5787 4.6056 28.3583 4.82621 28.101 4.78944L25.9325 4.31146C25.6016 4.23793 25.2341 4.34824 25.0136 4.64238L16.413 15.6724C16.2659 15.8929 15.9719 15.9665 15.7146 15.8562L12.4435 14.3855C12.1494 14.2385 11.8186 14.2752 11.5614 14.459L9.9074 15.5988C9.65011 15.7827 9.28256 15.8194 8.98852 15.6724L8.17992 15.2679C7.66536 15.0105 7.04054 15.3047 6.89351 15.8562L6.30543 18.4666C6.15842 19.0917 6.4157 19.7167 6.96702 20.0477L8.21667 20.8197L12.2229 23.2831L14.171 24.4963C14.7223 24.8273 15.4206 24.7537 15.8984 24.3492L19.1695 21.4814C19.4268 21.2609 19.8312 21.1873 20.1252 21.3712L21.1175 21.8859C21.4484 22.0698 21.8526 21.9962 22.1099 21.7388L23.7639 20.1946C24.0212 19.9373 24.4255 19.9005 24.7195 20.0477L27.1821 21.1873C27.5497 21.3712 27.9907 21.2609 28.248 20.9299L29.3873 19.4593L38.0246 8.39257C38.429 7.87784 38.1717 7.10574 37.5102 6.95868L35.599 6.51747C35.1946 6.44394 35.0108 5.92921 35.3048 5.63507L38.2819 1.92163C38.5761 1.48044 38.3923 1.00248 37.9512 0.928945Z" fill="#8257E6"/>
<path d="M9.46566 23.2095C9.2819 23.0991 9.09812 23.2829 9.17162 23.4668L10.0905 25.8933C10.164 26.0772 10.164 26.2611 10.1273 26.445L9.31865 29.6069C9.28188 29.8274 9.3554 30.0481 9.50242 30.1583L11.818 31.9599C12.0385 32.107 12.3325 32.107 12.5163 31.9232L14.942 29.7907C15.0891 29.6804 15.2729 29.6069 15.4199 29.57L18.1766 29.2759C18.3603 29.2392 18.4337 28.9818 18.25 28.8716L9.46566 23.2095Z" fill="#8257E6"/>
<path d="M8.65738 31.3718C8.51037 31.2615 8.28983 31.2248 8.10607 31.2982L6.15807 32.2542C6.04781 32.2909 5.97429 32.4013 5.90078 32.5116L1.74751 42.7694C1.74751 42.8063 1.74751 42.8061 1.74751 42.843C1.78427 42.8797 1.82102 42.9165 1.89453 42.9165L2.85014 42.5489C2.88691 42.5489 2.92365 42.5489 2.9604 42.5489C2.99716 42.5856 3.03392 42.6592 2.99717 42.6959L0.0200341 47.5859C-0.0534752 47.6962 0.0935468 47.8064 0.167056 47.6962L10.9362 36.8868C11.0464 36.7764 11.0832 36.6662 11.12 36.5192L11.3405 33.7248C11.3405 33.541 11.267 33.394 11.1567 33.2836L8.65738 31.3718Z" fill="#8257E6"/>
</g>
<defs>
<clipPath id="clip0_427_28">
<rect width="152" height="48" fill="white" transform="translate(254)"/>
</clipPath>
<clipPath id="clip1_427_28">
<rect width="249" height="48" fill="white"/>
</clipPath>
</defs>
</svg>
